<svg width="26" height="37" viewBox="0 0 26 37" fill="none" xmlns="http://www.w3.org/2000/svg">
<path d="M7.98655 37H5.80255L7.26655 31.672H4.93855L3.45055 37H1.26655L2.73055 31.648H0.330547L0.954547 29.512H3.30655L4.12255 26.632H1.74655L2.37055 24.424H4.74655L5.94655 20.2H8.13055L6.93055 24.424H9.28255L10.4825 20.2H12.7145L11.4665 24.424H13.8185L13.1945 26.632H10.8425L10.0265 29.512H12.4265L11.8745 31.648H9.45055L7.98655 37ZM7.84255 29.512L8.65855 26.632H6.30655L5.49055 29.512H7.84255ZM25.9609 37H20.0329V8.868C18.2303 9.7 16.7743 10.168 15.6649 10.272V5.8C16.9476 5.488 17.9529 5.02 18.6809 4.396C19.7903 3.49466 20.5529 2.22933 20.9689 0.599998H25.9609V37Z" fill="#DB3138"/>
</svg>
