<svg width="33" height="37" viewBox="0 0 33 37" fill="none" xmlns="http://www.w3.org/2000/svg">
<path d="M7.81272 37H5.62872L7.09272 31.672H4.76472L3.27672 37H1.09272L2.55672 31.648H0.156718L0.780718 29.512H3.13272L3.94872 26.632H1.57272L2.19672 24.424H4.57272L5.77272 20.2H7.95672L6.75672 24.424H9.10872L10.3087 20.2H12.5407L11.2927 24.424H13.6447L13.0207 26.632H10.6687L9.85272 29.512H12.2527L11.7007 31.648H9.27672L7.81272 37ZM7.66872 29.512L8.48472 26.632H6.13272L5.31672 29.512H7.66872ZM32.6511 37H16.0111C15.6298 33.568 16.3751 30.2227 18.2471 26.964C19.2871 25.196 20.5004 23.4973 21.8871 21.868C23.1698 20.412 24.1058 19.3027 24.6951 18.54C25.5618 17.396 26.0991 16.46 26.3071 15.732C26.5498 14.9693 26.6711 13.9987 26.6711 12.82V9.544C26.6711 8.33067 26.5671 7.44666 26.3591 6.892C26.0471 6.09466 25.4058 5.696 24.4351 5.696C23.4991 5.696 22.8751 6.09466 22.5631 6.892C22.3551 7.308 22.2511 8.31333 22.2511 9.908V14.692H16.4791V10.376C16.4791 7.91467 16.7564 6.04267 17.3111 4.76C17.9004 3.37333 18.8364 2.33333 20.1191 1.64C21.4018 0.946665 22.8404 0.599998 24.4351 0.599998C27.5898 0.599998 29.8431 1.744 31.1951 4.032C32.1311 5.62667 32.5991 7.68933 32.5991 10.22V12.04C32.5991 14.536 32.4084 16.3907 32.0271 17.604C31.6111 18.956 30.5364 20.672 28.8031 22.752C28.1098 23.584 27.2951 24.5027 26.3591 25.508C25.4578 26.5133 24.8684 27.1893 24.5911 27.536C23.3778 28.9573 22.5804 30.4133 22.1991 31.904H32.6511V37Z" fill="#DB3138"/>
</svg>
