<svg width="34" height="38" viewBox="0 0 34 38" fill="none" xmlns="http://www.w3.org/2000/svg">
<path d="M8.0842 37H5.9002L7.3642 31.672H5.0362L3.5482 37H1.3642L2.8282 31.648H0.428203L1.0522 29.512H3.4042L4.2202 26.632H1.8442L2.4682 24.424H4.8442L6.0442 20.2H8.2282L7.0282 24.424H9.3802L10.5802 20.2H12.8122L11.5642 24.424H13.9162L13.2922 26.632H10.9402L10.1242 29.512H12.5242L11.9722 31.648H9.5482L8.0842 37ZM7.9402 29.512L8.7562 26.632H6.4042L5.5882 29.512H7.9402ZM16.2826 25.04H22.2106V28.056C22.2106 29.6853 22.3319 30.7427 22.5746 31.228C22.9559 32.0253 23.6839 32.424 24.7586 32.424C25.8679 32.424 26.5959 32.0253 26.9426 31.228C27.1159 30.8813 27.2026 29.9627 27.2026 28.472V25.092C27.2026 23.0467 27.0292 21.764 26.6826 21.244C26.0586 20.3427 24.8106 19.892 22.9386 19.892H21.1186V14.796H24.3426C24.6892 14.796 24.9666 14.7787 25.1746 14.744C25.3826 14.7093 25.6426 14.6227 25.9546 14.484C26.3012 14.3107 26.5439 14.016 26.6826 13.6C26.8559 13.1493 26.9426 12.5773 26.9426 11.884V8.14C26.9426 7.13466 26.8039 6.424 26.5266 6.008C26.1106 5.45333 25.5039 5.176 24.7066 5.176C23.8746 5.176 23.2679 5.436 22.8866 5.956C22.6092 6.372 22.4706 7.11733 22.4706 8.192V10.74H16.5426V8.036C16.5426 6.06 16.9759 4.448 17.8426 3.2C19.2292 1.12 21.5346 0.079998 24.7586 0.079998C27.9479 0.079998 30.2359 1.03333 31.6226 2.94C32.4546 4.11866 32.8706 5.67866 32.8706 7.62V10.48C32.8706 11.9707 32.7839 13.1147 32.6106 13.912C32.4372 14.6747 32.0386 15.3853 31.4146 16.044C30.6519 16.8067 29.7679 17.292 28.7626 17.5C30.5999 17.9507 31.8826 19.1467 32.6106 21.088C32.9572 22.0933 33.1306 23.48 33.1306 25.248V28.732C33.1306 31.02 32.7666 32.8227 32.0386 34.14C30.7212 36.3933 28.2772 37.52 24.7066 37.52C21.3439 37.52 18.9866 36.4453 17.6346 34.296C16.7332 32.9093 16.2826 30.864 16.2826 28.16V25.04Z" fill="#DB3138"/>
</svg>
