<svg width="35" height="37" viewBox="0 0 35 37" fill="none" xmlns="http://www.w3.org/2000/svg">
<path d="M7.88108 37H5.69708L7.16108 31.672H4.83308L3.34508 37H1.16108L2.62508 31.648H0.225078L0.849078 29.512H3.20108L4.01708 26.632H1.64108L2.26508 24.424H4.64108L5.84108 20.2H8.02508L6.82508 24.424H9.17708L10.3771 20.2H12.6091L11.3611 24.424H13.7131L13.0891 26.632H10.7371L9.92108 29.512H12.3211L11.7691 31.648H9.34508L7.88108 37ZM7.73708 29.512L8.55308 26.632H6.20108L5.38508 29.512H7.73708ZM31.4195 37H25.4915V30.344H15.5595V25.508L25.4915 0.599998H31.4195V25.456H34.1235V30.344H31.4195V37ZM25.4915 25.456V13.08L21.0195 25.456H25.4915Z" fill="#DB3138"/>
</svg>
