<svg width="34" height="38" viewBox="0 0 34 38" fill="none" xmlns="http://www.w3.org/2000/svg">
<path d="M7.93186 37H5.74786L7.21186 31.672H4.88386L3.39586 37H1.21186L2.67586 31.648H0.275859L0.899859 29.512H3.25186L4.06786 26.632H1.69186L2.31586 24.424H4.69186L5.89186 20.2H8.07586L6.87586 24.424H9.22786L10.4279 20.2H12.6599L11.4119 24.424H13.7639L13.1399 26.632H10.7879L9.97186 29.512H12.3719L11.8199 31.648H9.39586L7.93186 37ZM7.78786 29.512L8.60386 26.632H6.25186L5.43586 29.512H7.78786ZM33.2902 23.168V28.576C33.2902 30.7947 32.9782 32.528 32.3542 33.776C31.1062 36.272 28.7489 37.52 25.2822 37.52C21.7809 37.52 19.3542 36.22 18.0022 33.62C17.5862 32.8573 17.2742 31.956 17.0662 30.916C16.8929 29.876 16.7889 29.0613 16.7542 28.472C16.7542 27.848 16.7542 26.8947 16.7542 25.612V10.532C16.7542 7.03067 17.3782 4.48267 18.6262 2.888C20.0822 1.016 22.1796 0.079998 24.9182 0.079998C27.6569 0.079998 29.7716 0.963998 31.2622 2.732C32.3369 4.01466 32.8742 5.852 32.8742 8.244V11.26H27.1542V8.608C27.1542 7.60266 26.9982 6.788 26.6862 6.164C26.3049 5.50533 25.6982 5.176 24.8662 5.176C24.1729 5.176 23.6356 5.47066 23.2542 6.06C22.8729 6.684 22.6822 7.58533 22.6822 8.764V16.876C23.0982 16.1827 23.6702 15.6107 24.3982 15.16C25.2996 14.6053 26.3396 14.328 27.5182 14.328C29.2169 14.328 30.5689 14.9173 31.5742 16.096C32.7182 17.4133 33.2902 19.7707 33.2902 23.168ZM22.6822 22.7V29.2C22.6822 30.2053 22.8382 30.968 23.1502 31.488C23.6009 32.112 24.2249 32.424 25.0222 32.424C25.9236 32.424 26.5476 32.1467 26.8942 31.592C27.2062 31.1413 27.3622 30.3613 27.3622 29.252V22.492C27.3622 21.348 27.2062 20.5333 26.8942 20.048C26.4436 19.4933 25.8196 19.216 25.0222 19.216C24.1902 19.216 23.5836 19.4933 23.2022 20.048C22.8556 20.5333 22.6822 21.4173 22.6822 22.7Z" fill="#DB3138"/>
</svg>
